<svg fill="#666666" role="img" viewBox="0 0 22 24" xmlns="http://www.w3.org/2000/svg"><title>Internet Archive</title><path d="M21.667 22.884V24H0.333v-1.116z m-0.842-1.675v1.396H1.175v-1.396zM3.233 6.14l0.234 0.118 0.118 1.882 0.117 3.058v2.941l-0.117 3.666-0.02 2.47-0.332 0.098H2.062l-0.352-0.098-0.136-2.47-0.118-3.646v-2.941l0.118-3.078 0.107-1.892 0.244-0.107z m16.842 0l0.235 0.118 0.117 1.882 0.117 3.058v2.941l-0.117 3.666-0.02 2.47-0.332 0.098h-1.171l-0.352-0.098-0.137-2.47-0.117-3.646v-2.941l0.117-3.078 0.108-1.892 0.244-0.107z m-11.79 0l0.235 0.118 0.117 1.882 0.117 3.058v2.941l-0.117 3.666-0.02 2.47-0.331 0.098H7.114l-0.352-0.098-0.136-2.47-0.117-3.646v-2.941l0.117-3.078 0.107-1.892 0.244-0.107z m6.457 0l0.234 0.118 0.117 1.882 0.118 3.058v2.941l-0.118 3.666-0.019 2.47-0.332 0.098H13.57l-0.351-0.098-0.137-2.47-0.117-3.646v-2.941l0.117-3.078 0.108-1.892 0.244-0.107z m6.083-2.511V5.58H1.175V3.628zM10.798 0l10.307 2.347-0.413 0.723H0.951l-0.618-0.587Z"/></svg>