<svg fill="#1185FE" role="img" viewBox="0 0 28 24" xmlns="http://www.w3.org/2000/svg"><title>Bluesky</title><path d="M6.279 1.616C9.405 3.961 12.765 8.718 14 11.271c1.235-2.552 4.595-7.31 7.721-9.655C23.975-0.078 27.629-1.387 27.629 2.781c0 0.831-0.477 6.992-0.758 7.992-0.972 3.476-4.518 4.364-7.672 3.828 5.513 0.938 6.916 4.045 3.887 7.154-5.753 5.901-8.268-1.481-8.912-3.373-0.118-0.346-0.173-0.509-0.174-0.372 0-0.137-0.057 0.025-0.174 0.372-0.645 1.892-3.16 9.274-8.912 3.373-3.029-3.109-1.626-6.216 3.887-7.155-3.154 0.537-6.7-0.35-7.672-3.827C0.848 9.774 0.371 3.612 0.371 2.781c0-4.168 3.654-2.859 5.908-1.165"/></svg>