<svg fill="#0087FF" role="img" viewBox="0 0 20 24" xmlns="http://www.w3.org/2000/svg"><title>CryptPad</title><path d="M0.355 0l0.008 0.717 0.153 12.23c0.045 3.668 1.528 6.09 3.425 7.692 1.897 1.602 4.168 2.444 5.844 3.215l0.317 0.146 0.308-0.164c1.492-0.788 3.779-1.625 5.72-3.209 1.943-1.584 3.515-3.997 3.515-7.69V5.97L13.22 0Zm9.729 1.416h1.604v6.016h6.542v3.879H13.4c-0.055 1.091-0.59 1.926-1.256 2.484l0.938 4.97h-2.994v3.655l-0.018 0.008c-1.691-0.764-3.651-1.55-5.215-2.87-1.653-1.396-2.884-3.32-2.925-6.628l-0.02-1.62h4.674c-0.003-0.054-0.006-0.108-0.006-0.164a3.424 3.424 0 0 1 3.41-3.41l0.096 0.002z m3.02 0.408l4.513 4.194h-4.513z m-3.112 6.91a2.412 2.412 0 0 0-1.043 4.586l-0.844 4.448h3.772l-0.842-4.448a2.412 2.412 0 0 0-1.043-4.586z"/></svg>