<svg fill="#FF7139" role="img" viewBox="0 0 25 24" xmlns="http://www.w3.org/2000/svg"><title>Firefox</title><path d="M20.972 3.425a11.028 11.028 0 0 0-2.488-1.913C17.456 0.971 15.605 0.065 12.978 0.003c-0.736-0.017-1.461 0.03-2.179 0.145-0.722 0.114-1.401 0.293-2.123 0.561-1.019 0.378-2.001 0.977-2.581 1.558 0.584-0.35 1.48-0.735 2.557-0.995a10.107 10.107 0 0 1 3.738-0.167c2.347 0.341 4.188 1.384 5.493 2.631a8.085 8.085 0 0 1 1.301 1.591c1.472 2.388 1.333 5.389 0.184 7.159-0.852 1.315-2.676 2.55-4.38 2.536-0.584-0.023-1.441-0.152-2.256-0.567-2.635-1.346-3.028-4.699-1.12-6.321-0.634-0.136-1.824 0.13-2.653 1.366-0.744 1.11-0.702 2.823-0.242 4.038a6.489 6.489 0 0 1-0.592-1.9 7.714 7.714 0 0 1 0.417-3.854A8.232 8.232 0 0 1 9.944 5.383c0.898-1.072 1.913-1.724 2.756-2.01-0.541-0.472-1.414-0.74-2.426-0.768C8.801 2.561 6.813 3.04 5.182 4.392a8.168 8.168 0 0 0-1.98 2.42c-0.456 0.838-0.693 1.663-0.699 1.682 0.122-1.448 0.706-3.001 1.251-4.065-0.792 0.414-1.831 1.672-2.416 3.049C0.566 9.364 0.271 11.607 0.611 13.994c0.968 5.682 5.914 10.006 11.872 10.006C19.136 24 24.529 18.607 24.529 11.956a11.959 11.959 0 0 0-3.557-8.531z"/></svg>