<svg fill="#CD5029" role="img" viewBox="0 0 17 24" xmlns="http://www.w3.org/2000/svg"><title>Firefly III</title><path d="M6.607 0s0.917 3.103-0.842 4.91c-1.76 1.807-1.57 3.803-0.856 4.754 0.713 0.951 0.665 1.664 0.095 2.187-0.57 0.523-1.046 0.904-1.379 0.048-0.333-0.856-0.713-0.856-0.856-1.284a43.535 43.535 0 0 0-0.428-1.189s-0.903 1.427-1.474 2.283c-0.57 0.855-0.57 2.187-0.19 2.9 0.38 0.713 0.238 1.569-0.047 2.757-0.286 1.189 0.095 2.996 1.426 3.709 1.331 0.713 2.948 1.283 3.66 1.949 0.714 0.666 2.378 1.284 4.518 0.808 2.14-0.475 4.85-2.662 5.324-4.136 0 0 1.237-1.379 1-3.185-0.239-1.807-1.095-1.76-1.475-3.138-0.38-1.38 0.823-1.04-0.19-3.406 0 0-0.452-1.127-2.168-1.939-1.102-0.521-0.352-2.88-2.3-5.258C8.474 0.393 6.606 0 6.606 0z m-0.326 11.753c1.373-0.01 2.14 1.376 2.14 1.376 1.78-0.216 3.533 0.152 4.374 0.94 0.531 0.498 0.965 0.956 1.181 1.834-0.1-0.034-0.282-0.08-0.52-0.076a1.875 1.875 0 0 0-0.902 0.256s-0.99-0.333-1.52 0.097c-0.55 0.446-0.604 0.968-0.576 1.586 0 0 0.476-1.628 1.68-1.208 0 0-0.852 1.5 0.472 1.762 0 0 0.313-0.002 0.57-0.158 0.247-0.148 0.44-0.424 0.361-0.92 0 0-0.16-0.494-0.577-0.794 0 0 0.378-0.267 1.096-0.104 0.035 0.238 0.056 0.503 0.063 0.802 0.047 2.057-1.326 3.402-1.326 3.402v0.927c-0.167 0.334-0.445 0.445-1.39 0.445-0.946 0-1.076-0.26-1.076-0.26v-0.185c-1.446 0.186-2.234 0-2.234 0 0 0.167 0 0.195-0.14 0.334-0.138 0.139-1 0.148-1.65 0.055-0.649-0.092-0.574-0.407-0.574-0.407v-0.946a3.663 3.663 0 0 1-1.354-1.873l-0.61 0.012c-0.334 0-0.477-0.428-0.477-0.428v-1.379c0-0.428 0.428-0.523 0.428-0.523l0.594-0.045c0.201-1.426 1.688-2.522 1.688-2.522l-0.083-1.966c0.125-0.023 0.246-0.033 0.362-0.034z m-0.548 4.716a0.352 0.352 0 0 0-0.353 0.352 0.352 0.352 0 0 0 0.353 0.352 0.352 0.352 0 0 0 0.352-0.352 0.352 0.352 0 0 0-0.352-0.352z m6.85 0.301s0.124 0.031 0.39 0.469c0.257 0.425-0.182 0.635-0.182 0.635-0.827 0.063-0.208-1.104-0.208-1.104z"/></svg>