<svg fill="#609926" role="img" viewBox="0 0 39 24" xmlns="http://www.w3.org/2000/svg"><title>Gitea</title><path d="M6.863 0.002c-0.401 0-0.852 0.032-1.363 0.142-0.54 0.114-2.076 0.459-3.332 1.666C-0.618 4.295 0.092 8.245 0.18 8.84c0.105 0.723 0.427 2.736 1.962 4.49 2.837 3.473 8.942 3.393 8.943 3.393s0.749 1.789 1.894 3.438c1.549 2.049 3.14 3.646 4.688 3.839 3.903 0 11.698-0.006 11.698-0.006s0.743 0.006 1.752-0.64c0.868-0.526 1.643-1.448 1.643-1.448s0.798-0.855 1.914-2.806c0.341-0.6 0.624-1.182 0.873-1.733 0 0 3.418-7.252 3.418-14.311-0.068-2.138-0.595-2.514-0.719-2.639-0.253-0.253-0.594-0.248-0.593-0.248s-7.259 0.409-11.017 0.496c-0.824 0.018-1.642 0.037-2.453 0.044v7.257l-1.028-0.488c0-2.255-0.006-6.764-0.007-6.764-1.796 0.026-5.523-0.136-5.523-0.137s-8.758-0.438-9.711-0.525c-0.303-0.018-0.65-0.052-1.051-0.052z m0.574 2.971h0.18s0.44 3.68 0.973 5.835C9.036 10.616 10.125 13.622 10.125 13.622s-1.616-0.193-2.662-0.564c-1.606-0.526-2.285-1.158-2.286-1.159s-1.184-0.829-1.777-2.465C2.378 6.696 3.314 5.025 3.314 5.025s0.519-1.393 2.384-1.857c0.641-0.172 1.4-0.195 1.739-0.195z m13.512 4.143c0.422 0.005 0.826 0.206 0.825 0.206l1.408 0.684-0.858 1.744a1.113 1.113 0 0 0-0.996 0.583 1.111 1.111 0 0 0 0.117 1.226l-1.523 3.121a1.119 1.119 0 0 0-1.071 0.854 1.114 1.114 0 0 0 0.563 1.238 1.113 1.113 0 0 0 1.406-0.334 1.116 1.116 0 0 0-0.111-1.431l1.485-3.039a1.082 1.082 0 0 0 0.385-0.033 1.066 1.066 0 0 0 0.439-0.222 14.316 14.316 0 0 1 1.648 0.83 1.234 1.234 0 0 1 0.464 0.458c0.118 0.341-0.118 0.923-0.118 0.923-0.141 0.47-1.139 2.514-1.139 2.514a1.122 1.122 0 0 0-1.096 0.774 1.105 1.105 0 1 0 1.876-0.409c0.118-0.229 0.229-0.457 0.347-0.699 0.308-0.644 0.835-1.882 0.836-1.882 0.057-0.107 0.354-0.639 0.167-1.32-0.154-0.706-0.779-1.035-0.779-1.035-0.758-0.488-1.81-0.941-1.81-0.941s0-0.253-0.068-0.438a1.116 1.116 0 0 0-0.24-0.391l0.837-1.722 4.688 2.272s0.779 0.354 0.945 1.004c0.118 0.457-0.031 0.866-0.112 1.066-0.389 0.952-3.406 7.002-3.406 7.002s-0.376 0.899-1.213 0.954a1.727 1.727 0 0 1-0.638-0.073l-0.327-0.13-6.991-3.406s-0.676-0.354-0.795-0.967c-0.135-0.503 0.169-1.121 0.168-1.121l3.363-6.929s0.297-0.6 0.756-0.806a1.387 1.387 0 0 1 0.568-0.125z"/></svg>