<svg fill="#FA5252" role="img" viewBox="0 0 36 24" xmlns="http://www.w3.org/2000/svg"><title>Homarr</title><path d="M9.504 17.469a9.649 9.649 0 0 0 1.849-5.691c0-2.741-1.142-5.215-2.975-6.976a9.673 9.673 0 0 0-1.231-1.001c-1.242-0.853-2.693-1.425-4.261-1.621 0 0-0.003 0-0.003 0.003L4.733 9.726H0.252c0.456 3.52 2.968 6.395 6.29 7.383l0.644 2.621a9.702 9.702 0 0 0 2.318-2.26Zm21.762-7.743l1.851-7.543-0.003-0.003c-1.568 0.194-3.019 0.767-4.261 1.621a9.762 9.762 0 0 0-1.232 1.001c-1.833 1.76-2.974 4.234-2.974 6.976a9.648 9.648 0 0 0 1.849 5.691 9.702 9.702 0 0 0 2.318 2.26l0.644-2.621c3.323-0.989 5.833-3.862 6.29-7.382h-4.481z m-11.263 5.241a1.215 1.215 0 0 0 1.216-1.215 1.215 1.215 0 0 0-1.216-1.216 1.215 1.215 0 0 0-1.215 1.216c0 0.671 0.544 1.215 1.215 1.215m-4.006-2.431a1.215 1.215 0 0 0-1.215 1.216c0 0.671 0.544 1.215 1.215 1.215a1.215 1.215 0 0 0 1.216-1.215 1.215 1.215 0 0 0-1.216-1.216m-0.795 4.286c-2.475 0.594-4.577 1.945-6.11 3.747a11.566 11.566 0 0 0-1.984 3.33l3.231 0.019 18.405 0.082 0.003-0.004c-2.025-5.393-7.8-8.555-13.545-7.174Zm4.801-7.263c0.135 0 0.263 0.027 0.385 0.069V4.994c0-1.997 1.625-3.622 3.622-3.622 1.27 0 2.388 0.659 3.034 1.652 0.351-0.293 0.721-0.566 1.107-0.817-0.897-1.33-2.42-2.207-4.141-2.207-2.753 0-4.994 2.241-4.994 4.994v5.077c0.22-0.308 0.579-0.511 0.987-0.511zM11.99 1.372c1.997 0 3.622 1.625 3.622 3.622v4.634c0.122-0.041 0.25-0.068 0.385-0.069 0.408 0 0.767 0.203 0.987 0.512V4.994c0-2.753-2.24-4.994-4.994-4.994-1.722 0-3.243 0.877-4.141 2.207 0.387 0.25 0.756 0.523 1.107 0.817 0.647-0.992 1.764-1.651 3.034-1.652"/></svg>