<svg fill="#18BCF2" role="img" viewBox="0 0 25 24" xmlns="http://www.w3.org/2000/svg"><title>Home Assistant</title><path d="M23.73 10.59L13.589 0.449a1.545 1.545 0 0 0-2.177 0l-10.142 10.141C0.672 11.188 0.181 12.372 0.181 13.218v9.239c0 0.848 0.693 1.54 1.54 1.54h9.472l-4.171-4.17a2.088 2.088 0 0 1-0.682 0.116c-1.16 0-2.105-0.944-2.104-2.105s0.944-2.105 2.104-2.104 2.105 0.944 2.105 2.104c0 0.239-0.042 0.468-0.116 0.683l3.247 3.247V9.872a2.105 2.105 0 0 1-1.181-1.889c0-1.16 0.944-2.105 2.105-2.105s2.105 0.944 2.105 2.105a2.105 2.105 0 0 1-1.181 1.889v8.343l3.23-3.23A2.106 2.106 0 0 1 18.66 12.244c1.16 0 2.105 0.944 2.104 2.105s-0.944 2.105-2.104 2.104c-0.257 0-0.501-0.048-0.728-0.133L13.424 20.83v3.17h9.855c0.847 0 1.54-0.693 1.54-1.54v-9.239c0-0.847-0.49-2.03-1.089-2.629z"/></svg>