<svg fill="#4250AF" role="img" viewBox="0 0 25 24" xmlns="http://www.w3.org/2000/svg"><title>Immich</title><path d="M12.486 0c-2.464 0-5.327 1.116-5.327 3.984v0.156c1.374 0.611 3.002 1.701 4.514 3.039 1.607 1.423 2.903 2.948 3.736 4.386 1.432-2.561 2.39-5.604 2.402-7.543V3.984c0-2.868-2.86-3.984-5.325-3.984m7.685 4.594c-0.386-0.008-0.793 0.051-1.219 0.189-0.037 0.012-0.088 0.028-0.148 0.048-0.156 1.495-0.691 3.38-1.497 5.231-0.857 1.969-1.906 3.672-3.015 4.909 2.878 0.571 6.067 0.539 7.915-0.048 0.013-0.004 0.025-0.007 0.036-0.009 2.728-0.887 2.905-3.952 2.143-6.296-0.642-1.978-2.129-3.979-4.215-4.024m-15.341 0.039C2.742 4.678 1.256 6.678 0.614 8.656c-0.761 2.344-0.584 5.41 2.143 6.296l0.148 0.047c1.005-1.118 2.545-2.328 4.284-3.352 1.85-1.089 3.702-1.85 5.327-2.198-1.993-2.153-4.592-4.003-6.432-4.614l-0.036-0.012c-0.426-0.139-0.832-0.198-1.219-0.189m4.78 6.913c-2.664 1.23-5.226 3.13-6.376 4.691l-0.022 0.03c-1.686 2.32-0.028 4.906 1.966 6.354 1.994 1.448 4.963 2.227 6.65-0.094 0.023-0.032 0.055-0.073 0.091-0.124-0.753-1.301-1.428-3.142-1.864-5.113-0.464-2.096-0.616-4.092-0.445-5.744m1.097 3.415c0.346 2.913 1.362 5.937 2.491 7.512l0.022 0.03c1.686 2.32 4.656 1.542 6.65 0.094 1.994-1.449 3.652-4.034 1.966-6.354-0.023-0.032-0.053-0.075-0.09-0.126-1.47 0.314-3.429 0.388-5.439 0.194-2.137-0.206-4.081-0.678-5.6-1.35"/></svg>