<svg fill="#97979A" role="img" viewBox="0 0 17 24" xmlns="http://www.w3.org/2000/svg"><title>Jitsi</title><path d="M16.171 8.622a2.31 2.31 0 0 0-0.895-0.998c-0.464-0.294-1.044-0.357-1.448-0.356q-0.204 0-0.408 0.021h-0.01a3 3 0 0 1 0.034-0.186c0.02-0.103 0.043-0.219 0.056-0.341 0.054-0.521-0.132-1.222-0.473-1.785-0.054-0.09-0.052-0.12-0.052-0.12a0.4 0.4 0 0 1 0.059-0.07l0.031-0.033c0.807-0.864 1.051-1.814 0.724-2.829C13.17 0 13.004 0 12.882 0a0.192 0.192 0 0 0-0.144 0.063 0.224 0.224 0 0 0-0.048 0.177c0.063 0.638-0.081 1.552-0.178 1.9-0.118 0.438-0.528 1.091-1.824 1.712a3 3 0 0 1-0.278 0.102c-0.423 0.142-1.129 0.378-1.522 0.919-0.296 0.347-0.368 0.695-0.496 1.322-0.114 0.558-0.206 1.237-0.026 2.047a6 6 0 0 0 0.052 0.207c0.011 0.043 0.021 0.08 0.027 0.112l0.016-0.003-0.016 0.004c0.012 0.048 0.004 0.06-0.013 0.072a1.3 1.3 0 0 1-0.192 0.059c-0.192 0.031-0.384 0.065-0.567 0.101-0.584 0.1-2.348 0.405-3.161 1.698-0.502 0.798-0.573 1.84-0.212 3.101 0.374 1.248 1.116 2.106 1.624 2.28l0.008 0.003q0.055 0.025 0.105 0.042c0 0.035-0.003 0.078-0.007 0.126a2 2 0 0 0-0.01 0.069c-0.056 0.407-0.248 0.846-0.444 0.857-0.103-0.02-0.512-0.252-0.802-0.442a31 31 0 0 1-0.264-0.174c-0.808-0.535-1.253-0.829-1.934-0.905a0.7 0.7 0 0 0-0.07-0.004c-0.72 0-2.016 1.212-2.043 3.629-0.014 1.211 0.113 2.317 0.378 3.289 0.189 0.697 0.391 1.094 0.449 1.2L1.523 24l0.107-0.48c0.562-2.544 1.255-3.157 2.408-3.89 0.845 0.792 1.956 1.21 3.22 1.209 1.066 0 2.181-0.31 3.139-0.872 0.941-0.552 1.668-1.296 2.112-2.156 0.074 0.048 0.163 0.11 0.222 0.152 0.211 0.148 0.256 0.179 0.331 0.179h0.007c0.083-0.003 0.861-0.264 1.658-1.238 0.463-0.566 0.845-1.266 1.135-2.082 0.359-1.008 0.576-2.198 0.65-3.537 0.082-1.124-0.033-2.019-0.339-2.66z m-2.987-6.471c0.067 0.27 0.076 0.551 0.026 0.825-0.075 0.532-0.3 1.008-0.686 1.442a8.21 8.21 0 0 0 0.66-2.267m-0.556 3.301c0.117 0.177 0.207 0.371 0.265 0.576 0.065 0.268 0.053 0.549-0.033 0.811-0.138 0.328-0.323 0.493-0.55 0.494h-0.03a0.6 0.6 0 0 1-0.226-0.083c-0.292-0.171-0.45-0.624-0.336-0.956a0.5 0.5 0 0 0 0.014-0.03c0.019-0.048 0.072-0.14 0.219-0.283 0.211-0.187 0.52-0.422 0.676-0.528z m-3.38-0.09l0.003-0.005V5.352c0.062-0.154 0.492-0.402 0.777-0.567a6 6 0 0 1 0.107-0.062 4.1 4.1 0 0 1 0.384-0.177c0.469-0.2 1.2-0.511 1.802-1.09-0.175 0.612-0.595 1.644-1.286 2.269-0.154 0.139-0.464 0.262-0.824 0.403-0.387 0.153-0.853 0.336-1.304 0.613 0.035-0.353 0.144-0.97 0.339-1.379z m-0.3 1.996c0.232-0.192 0.658-0.452 2.051-0.912a6 6 0 0 1 0.032 0.154c0.009 0.042 0.018 0.089 0.028 0.141 0.091 0.45 0.192 0.956 1.129 1.237-0.087 0.192-0.267 0.516-0.329 0.578l-0.02 0.018-0.015 0.024c-0.182 0.293-1.168 0.932-1.61 0.931a0.33 0.33 0 0 1-0.056-0.004c-0.266-0.051-0.876-0.594-1.056-0.994-0.347-0.787-0.276-1.07-0.156-1.171zM5.477 14.579c-0.511-0.76-0.898-2.087-0.645-3.155v-0.005c0.122-0.581 0.528-0.923 0.696-1.042l0.024-0.018c0.249-0.217 0.757-0.446 1.433-0.646 0.096-0.025 0.149-0.036 0.151-0.036 0.124-0.026 0.26-0.057 0.393-0.088a6.8 6.8 0 0 1 0.758-0.148 2.2 2.2 0 0 0 0.189-0.031 1.45 1.45 0 0 1 0.253-0.032 0.324 0.324 0 0 1 0.192 0.051c0.251 0.298 0.864 0.885 1.266 0.919h0.025c0.458-0.025 1.175-0.471 2.134-1.329 0.163-0.144 0.314-0.27 0.462-0.379l0.018-0.014a3.52 3.52 0 0 1 0.856-0.478c-0.1 0.328-0.18 0.889 0.144 1.68 0.169 0.409 0.492 1.331 0.76 2.233 0.462 1.554 0.398 1.828 0.388 1.853a0.53 0.53 0 0 1-0.062 0.15 0.37 0.37 0 0 1-0.103-0.036c-0.233-0.108-0.494-0.3-0.799-0.526-0.566-0.415-1.27-0.932-2.301-1.334-0.757-0.295-1.51-0.445-2.236-0.445a4.67 4.67 0 0 0-0.897 0.085c-1.623 0.32-2.479 1.036-2.938 1.421l-0.003 0.003a0.188 0.188 0 0 0-0.059 0.209 0.185 0.185 0 0 0 0.176 0.121c0.042 0 0.083-0.012 0.218-0.05a9.04 9.04 0 0 1 1.488-0.31q0.271-0.032 0.543-0.033c0.786 0 1.509 0.24 2.274 0.76 0.175 0.146 0.282 0.243 0.347 0.307l-0.066 0.018-0.464 0.131c-1.149 0.325-2.886 0.816-3.709 0.816a1.4 1.4 0 0 1-0.188-0.011c-0.213-0.031-0.473-0.254-0.715-0.61z m-3.39 5.83a4.09 4.09 0 0 0-0.701 1.415c-0.154-0.741-0.336-1.959-0.233-2.908 0.215-1.965 1.188-2.623 1.333-2.657h0.009c0.008 0 0.018 0 0.037 0.02 0.078 0.084 0.246 0.441 0.124 1.916-0.029 0.304 0.044 0.561 0.218 0.765 0.118 0.135 0.266 0.239 0.432 0.305a4.96 4.96 0 0 0-1.221 1.144zM3.742 18.48a0.43 0.43 0 0 1-0.161 0.037 0.129 0.129 0 0 1-0.105-0.04c-0.031-0.033-0.102-0.144-0.08-0.473 0.016-0.162 0.038-0.323 0.06-0.48a7 7 0 0 0 0.084-0.893c0.567 0.371 1.196 0.765 1.604 0.947-0.266 0.236-0.819 0.659-1.402 0.903z m7.404-0.053a5.35 5.35 0 0 1-3.47 1.632 6.3 6.3 0 0 1-0.463 0.018c-1.736 0-2.618-0.737-3.024-1.148 1.962-0.846 2.36-2.056 2.534-2.585a2 2 0 0 1 0.048-0.134c0.075-0.037 0.313-0.144 1.047-0.419 0.576-0.207 1.267-0.44 1.876-0.645 0.507-0.171 0.946-0.319 1.185-0.407l0.02-0.006a1 1 0 0 1 0.096-0.023l0.013 0.017c0.223 0.291 0.591 0.468 0.595 0.47 0.277 0.124 0.573 0.198 0.875 0.221-0.007 1.049-0.486 2.136-1.329 3.009z m1.522-3.591c-0.726 0-0.981-0.234-1.219-0.516-1.179-1.406-2.483-1.636-2.99-1.671a7.3 7.3 0 0 0-0.473-0.015c-0.128 0-0.253 0.003-0.374 0.011a5.7 5.7 0 0 1 1.824-0.304c1.301 0 2.553 0.461 3.721 1.369 0.476 0.37 0.827 0.633 1.129 0.844a28 28 0 0 1-0.598 0.168l-0.096 0.026a5.76 5.76 0 0 1-0.923 0.088z m0.452 2.659c-0.076-0.067-0.192-0.174-0.311-0.283a4.7 4.7 0 0 0 0.247-0.864c0.057-0.311 0.092-0.72 0.109-0.937a8.6 8.6 0 0 0 1.022-0.217c0.405-0.116 0.717-0.248 0.94-0.398-0.695 1.734-1.701 2.496-2.007 2.698z m2.404-3.966c-0.103-0.855-0.449-1.912-0.585-2.323-0.014-0.048-0.026-0.083-0.035-0.108-0.01-0.033-0.041-0.119-0.105-0.297-0.167-0.465-0.514-1.432-0.576-1.718-0.089-0.42 0.112-0.999 0.24-1.049a0.35 0.35 0 0 1 0.124-0.023c0.236 0 0.528 0.223 0.758 0.583 0.279 0.432 0.445 1.005 0.467 1.608 0.048 1.316-0.074 2.415-0.288 3.327"/></svg>