<svg fill="#1071D3" role="img" viewBox="0 0 19 24" xmlns="http://www.w3.org/2000/svg"><title>Joplin</title><path d="M18.469 0h-8.904c-0.084 0-0.152 0.068-0.152 0.152v2.827c0 0.095 0.077 0.172 0.172 0.172h1.221c0.493 0 0.894 0.38 0.937 0.863v13.378h-0.001l-0.017 0.363-0.05 0.282c-0.011 0.044-0.02 0.089-0.033 0.132-0.081 0.258-0.208 0.497-0.384 0.708-0.007 0.007-0.015 0.014-0.021 0.021-0.054 0.063-0.11 0.123-0.172 0.18-0.063 0.057-0.13 0.11-0.2 0.16-0.498 0.353-1.169 0.508-1.918 0.436-0.955-0.089-1.903-0.523-2.669-1.22-0.765-0.696-1.242-1.558-1.34-2.427-0.089-0.778 0.144-1.462 0.655-1.927 0.002-0.001 0.003-0.002 0.004-0.003 0.02-0.018 0.041-0.033 0.062-0.05 0.366-0.307 0.842-0.493 1.387-0.544 0.006 0 0.012-0.001 0.017-0.002l0.298-0.014 0.35 0.017c0.008 0 0.016 0.002 0.024 0.003 0.499 0.05 0.993 0.199 1.462 0.425 0.01 0 0.022 0.003 0.036 0.011 0.143 0.079 0.17-0.005 0.174-0.061v-4.256c0-0.122-0.085-0.23-0.203-0.256-2.527-0.556-5.005 0.022-6.754 1.615-1.528 1.389-2.267 3.395-2.027 5.502 0.213 1.876 1.176 3.679 2.712 5.076 1.497 1.362 3.402 2.213 5.368 2.399 0.271 0.025 0.543 0.038 0.809 0.038 1.877 0 3.619-0.644 4.905-1.814 1.218-1.109 1.948-2.632 2.055-4.288l0.01-10.866h0.001v-2.955c0.011-0.513 0.429-0.926 0.945-0.926h1.221c0.095 0 0.172-0.077 0.172-0.172v-2.827c0-0.084-0.068-0.152-0.152-0.152z"/></svg>