<svg fill="#000000" role="img" viewBox="0 0 31 24" xmlns="http://www.w3.org/2000/svg"><title>Kiwix</title><path d="M30.46 15.791c-0.231-1.014-1.909-3.938-5.337-6.53a33.809 33.809 0 0 0-1.663-1.187c0.685-2.933-2.879-6.471-6.355-4.805C14.609 0.92 11.825-0.038 9.265 0.001c-6.778 0.095-12.006 7.156-6.382 13.896l0.012 0.012c0.085 0.103 0.175 0.206 0.264 0.308 0.365 0.438 0.608 0.825 0.812 1.508l1.679 5.496h-0.594a0.993 0.993 0 0 0-0.992 0.993h2.251L10.1 24a0.988 0.988 0 0 0-0.471-1.318l-0.991-0.467H11.488a0.993 0.993 0 0 0-0.992-0.993H7.911a1.028 1.028 0 0 1-0.982-0.726L5.6 16.131c-0.333-1.148 0.429-1.896 1.144-1.986 0.653-0.08 0.981 0.34 1.287 1.36l1.182 3.872h-0.594a0.993 0.993 0 0 0-0.991 0.992h2.25l3.783 1.788a0.988 0.988 0 0 0-0.47-1.317l-0.992-0.469h2.092a5 5 0 0 0 7.848 1.006 5 5 0 0 0 0-7.067 5 5 0 0 0-8.29 5.07H11.48a1.028 1.028 0 0 1-0.984-0.728l-1.961-6.446 0.335-0.177c4.655-1.954 9.634 1.535 13.099-1.818l0.022-0.021c0.429-0.39 0.858-0.789 2.125 0.005 1.365 0.855 4.376 3.088 5.742 6.902 0.003 0 0.831-0.295 0.602-1.306z m-9.577-8.455a0.961 0.961 0 1 0-1.594 0.744 1.5 1.5 0 1 1 1.594-0.744z"/></svg>