<svg fill="#000000" role="img" viewBox="0 0 38 24" xmlns="http://www.w3.org/2000/svg"><title>Lemmy</title><path d="M5.053 0.002a6.037 6.037 0 0 0-0.512 0.029c-1.355 0.156-2.576 0.879-3.324 2.139-0.733 1.234-0.914 2.593-0.54 3.852 0.373 1.259 1.28 2.403 2.619 3.309 0.008 0.005 0.016 0.012 0.026 0.018 1.151 0.694 2.302 1.146 3.529 1.387-0.031 0.512-0.042 1.032-0.01 1.571 0.098 1.609 0.674 3.086 1.537 4.395l-3.095 1.263a0.642 0.642 0 0 0-0.351 0.346 0.642 0.642 0 0 0 0.136 0.702 0.64 0.64 0 0 0 0.453 0.19 0.641 0.641 0 0 0 0.246-0.048l3.409-1.394c0.629 0.75 1.341 1.437 2.117 2.033 0.03 0.023 0.063 0.041 0.093 0.065l-1.993 2.639a0.642 0.642 0 0 0 1.024 0.773l2.027-2.682c1.108 0.702 2.28 1.223 3.44 1.58 0.591 1.112 1.755 1.831 3.116 1.831 1.374 0 2.536-0.773 3.123-1.862 1.148-0.362 2.308-0.884 3.405-1.583l2.055 2.716a0.641 0.641 0 0 0 1.148-0.299 0.643 0.643 0 0 0-0.124-0.474l-2.02-2.676c0.013-0.012 0.027-0.017 0.04-0.029 0.766-0.587 1.473-1.261 2.101-1.996l3.325 1.356a0.641 0.641 0 0 0 0.835-0.351 0.64 0.64 0 0 0-0.351-0.838l-2.999-1.223c0.89-1.317 1.496-2.805 1.621-4.426 0.041-0.541 0.037-1.067 0.012-1.583 1.219-0.243 2.364-0.695 3.508-1.385 0.008-0.005 0.017-0.012 0.025-0.017 1.34-0.906 2.246-2.05 2.619-3.309 0.373-1.259 0.193-2.618-0.54-3.852-0.748-1.259-1.97-1.983-3.324-2.139a4.964 4.964 0 0 0-0.512-0.029c-1.211-0.023-2.504 0.353-3.747 1.071-0.914 0.528-1.736 1.338-2.381 2.219-1.805-1.034-4.153-1.616-7.04-1.663a24.03 24.03 0 0 0-0.788 0c-3.217 0.052-5.791 0.663-7.736 1.766-0.005-0.006-0.007-0.018-0.012-0.024-0.653-0.913-1.501-1.753-2.443-2.297-1.243-0.717-2.535-1.093-3.746-1.07Zm0.441 1.136c0.859 0.065 1.804 0.364 2.744 0.907 0.748 0.432 1.505 1.165 2.077 1.958a8.774 8.774 0 0 0-0.767 0.63c-1.419 1.314-2.255 3.023-2.573 4.989-1.05-0.216-2.034-0.609-3.061-1.226-1.165-0.791-1.876-1.732-2.16-2.692-0.286-0.963-0.166-1.961 0.428-2.961 0.577-0.972 1.431-1.471 2.486-1.592a4.313 4.313 0 0 1 0.826-0.012Zm27.012 0a4.315 4.315 0 0 1 0.825 0.012c1.056 0.121 1.909 0.62 2.487 1.592 0.594 1 0.714 1.999 0.428 2.962-0.285 0.96-0.995 1.9-2.16 2.691-1.015 0.61-1.987 0.998-3.024 1.217-0.3-2.001-1.138-3.755-2.57-5.094a8.583 8.583 0 0 0-0.726-0.605c0.562-0.756 1.278-1.454 1.996-1.869 0.94-0.542 1.885-0.841 2.744-0.906ZM19.009 2.749a22.881 22.881 0 0 1 0.751 0c3.687 0.061 6.302 1.034 7.965 2.589 1.774 1.659 2.534 4.012 2.313 6.891-0.202 2.635-1.883 4.98-4.091 6.671-1.071 0.82-2.256 1.443-3.433 1.896 0.005-0.07 0.022-0.137 0.021-0.208 0.004-1.846-1.437-3.414-3.535-3.414-2.099 0-3.582 1.566-3.536 3.427 0.002 0.078 0.022 0.15 0.028 0.226-1.205-0.452-2.421-1.082-3.514-1.921-2.197-1.688-3.856-4.031-4.016-6.668-0.174-2.864 0.583-5.15 2.346-6.782C12.072 3.824 14.915 2.816 19.009 2.749Zm-5.618 10.535c-0.934 0-1.692 0.756-1.692 1.692 0 0.935 0.758 1.695 1.692 1.695s1.692-0.759 1.692-1.695c0-0.935-0.758-1.692-1.692-1.692z m11.234 0.018c-0.925 0-1.676 0.75-1.677 1.676s0.751 1.679 1.677 1.679c0.925 0 1.676-0.753 1.676-1.679s-0.751-1.676-1.676-1.676zM19 18.299c1.579 0 2.415 0.984 2.412 2.288-0.003 1.211-1.037 2.291-2.412 2.291-1.414 0-2.376-0.868-2.412-2.303-0.033-1.288 0.833-2.275 2.412-2.276Z"/></svg>