<svg fill="#2C2B29" role="img" viewBox="0 0 27 24" xmlns="http://www.w3.org/2000/svg"><title>Monica</title><path d="M4.657 0C2.328 0 0.253 2.472 0.253 4.907c0 1.546 0.913 2.765 1.909 3.452a18.82 18.82 0 0 0-1.079 3.983c-1.33 8.163 6.429 11.658 12.63 11.658 6.201 0 13.082-3.987 12.213-11.658a16.276 16.276 0 0 0-0.975-4.065C25.903 7.576 26.747 6.392 26.747 4.906c0-2.435-2.074-4.905-4.404-4.905-1.693 0-3.549 0.27-4.438 1.351a12.996 12.996 0 0 0-4.192-0.672c-1.614 0-3.153 0.241-4.57 0.735-0.869-1.133-2.76-1.414-4.486-1.414z m8.975 3.06c4.973 0 9.097 3.197 9.795 9.347 0.698 6.149-4.821 9.347-9.796 9.348-4.974 0-11.201-2.803-10.134-9.348 1.068-6.544 5.16-9.347 10.134-9.347zM8.647 8.776c-1.934 0-3.059 2.434-3.059 4.832 0 2.398 0.735 3.141 2.499 3.563 1.764 0.42 3.779-1.868 3.779-4.266 0-2.397-1.284-4.129-3.219-4.129z m9.772 0c-1.935 0-3.219 1.732-3.219 4.129 0 2.398 2.014 4.686 3.778 4.266 1.764-0.422 2.502-1.165 2.501-3.563 0-2.398-1.126-4.832-3.06-4.832z m-9.251 1.745c1.018 0 1.214 0.784 1.214 1.805 0 1.02-0.629 1.803-1.648 1.802-0.48 0-0.625-0.121-0.841-0.397-0.243-0.309-0.424-0.666-0.364-1.405 0.099-1.235 0.62-1.805 1.638-1.805z m8.732 0c1.018 0 1.537 0.57 1.636 1.805 0.06 0.74-0.121 1.097-0.364 1.405-0.217 0.276-0.361 0.397-0.841 0.397-1.019 0-1.649-0.783-1.649-1.802s0.199-1.805 1.217-1.805z m-4.333 5.524c-0.958 0-1.903 0.098-1.903 0.703s0.958 2.016 1.917 2.016c0.959 0 1.889-1.411 1.888-2.016s-0.943-0.703-1.902-0.703z"/></svg>