<svg fill="#0082C9" role="img" viewBox="0 0 53 24" xmlns="http://www.w3.org/2000/svg"><title>Nextcloud</title><path d="M26.54 0c-5.491 0-10.104 3.761-11.513 8.819-1.23-2.706-3.938-4.624-7.084-4.624A7.84 7.84 0 0 0 0.141 12a7.84 7.84 0 0 0 7.802 7.805c3.146 0 5.852-1.92 7.082-4.627 1.408 5.061 6.023 8.822 11.515 8.822 5.463 0 10.052-3.719 11.49-8.736 1.25 2.658 3.917 4.54 7.025 4.541A7.837 7.837 0 0 0 52.859 12a7.84 7.84 0 0 0-7.804-7.805c-3.11 0-5.777 1.885-7.027 4.541-1.437-5.017-6.025-8.738-11.488-8.736z m0 4.58c4.125 0 7.42 3.295 7.42 7.42 0 4.125-3.295 7.42-7.42 7.42A7.385 7.385 0 0 1 19.122 12c0-4.125 3.295-7.42 7.418-7.42z m-18.597 4.195c1.806 0 3.222 1.417 3.223 3.225s-1.415 3.222-3.223 3.225A3.189 3.189 0 0 1 4.721 12c0-1.808 1.415-3.222 3.222-3.222z m37.112 0c1.808 0 3.225 1.417 3.224 3.225s-1.417 3.225-3.224 3.225A3.189 3.189 0 0 1 41.832 12c0-1.808 1.415-3.222 3.223-3.222z"/></svg>