<svg fill="#EBAF00" role="img" viewBox="0 0 52 24" xmlns="http://www.w3.org/2000/svg"><title>Plex</title><path d="M8.802 4.293c-2.06 0-3.406 0.601-4.55 2.002v-1.545H0.244v19.059s0.082 0.039 0.273 0.079c0.296 0.064 1.762 0.401 2.857-0.534 0.947-0.809 1.163-1.747 1.163-2.829v-2.754c1.144 1.23 2.462 1.745 4.293 1.745 3.949 0 6.982-3.204 6.982-7.469 0-4.55-2.919-7.755-7.01-7.754Zm35.946 12.008l0.871 1.269c0.839 1.318 1.919 1.945 3.203 1.948 1.333-0.026 2.284-1.206 2.631-1.62 0 0-0.659-0.58-1.472-1.545-1.11-1.318-2.606-3.767-2.662-3.87l-2.571 3.818Zm-6.879-4.196c0-4.464-3.262-7.813-7.555-7.812s-7.441 3.406-7.441 7.668a7.469 7.469 0 0 0 7.527 7.555c3.033 0 5.636-1.803 6.982-4.921h-4.379l-0.199 0.199c-0.916 0.859-1.545 1.144-2.634 1.144-1.689 0-2.947-1.086-3.118-2.717h10.701c0.086-0.459 0.116-0.659 0.116-1.116Zm-16.464-0.47c0 1.651 0.236 3.651 1.863 5.842l0.12 0.148c-0.657 1.129-1.593 1.889-2.679 1.889-0.856 0-1.747-0.453-2.442-1.243a4.672 4.672 0 0 1-1.155-3.092V0H21.407l-0.002 11.635Zm19.924 7.426h-5.13l4.823-7.151-4.823-7.158h5.13l4.825 7.158-4.825 7.151Zm3.419-2.76Zm-36.835-0.734c-2.002 0-3.606-1.659-3.606-3.692s1.631-3.576 3.606-3.575c1.975 0 3.606 1.573 3.606 3.606 0 2.03-1.573 3.662-3.606 3.661Zm39.408-4.237L51.756 4.75h-5.132l-1.868 2.775 2.565 3.805Zm-20.183-1c0.343-1.515 1.545-2.432 3.204-2.432 1.659 0 2.947 1.002 3.234 2.432h-6.438Z"/></svg>