<svg fill="#17541F" role="img" viewBox="0 0 20 24" xmlns="http://www.w3.org/2000/svg"><title>Paperless-ngx</title><path d="M4.338 23.028c-0.117-0.56-0.353-1.678-0.382-1.678-4.977-2.975-4.388-8.128-2.739-11.073 0.353 3.71 6.92 6.273 3.092 10.808-0.03 0.059 0.177 0.765 0.353 1.413 0.766-1.296 1.915-2.856 1.856-3.004C1.806 8.01 16.53 7.126 19.592 0c1.385 6.89-0.706 17.55-12.544 20.26-0.06 0.03-2.15 3.71-2.238 3.74 0-0.059-0.884-0.03-0.766-0.324 0.059-0.177 0.177-0.412 0.294-0.648z m-0.147-2.768c1.502-1.737-0.265-4.712-1.325-5.683 1.796 3.092 1.679 4.888 1.325 5.683z"/></svg>