<svg fill="#96060C" role="img" viewBox="0 0 17 24" xmlns="http://www.w3.org/2000/svg"><title>Pi-hole</title><path d="M0.844 0c0.238 4.792 3.256 7.056 6.252 7.376 0.165-1.692-4.319-5.6-4.319-5.6-0.008-0.011 0.009-0.025 0.019-0.014 0 0 4.648 4.01 5.423 5.645 2.762-0.15 5.196-1.947 5-4.912 0 0-4.12-0.613-5 4.618C7.98 2.753 5.493 0 0.844 0zM8.5 7.682v0.002a3.68 3.68 0 0 0-2.591 1.077L1.44 13.227a3.683 3.683 0 0 0-0.86 1.356 3.31 3.31 0 0 0-0.237 1.255A3.681 3.681 0 0 0 1.42 18.45l4.464 4.466a3.69 3.69 0 0 0 2.251 1.06l0.002 0.001c0.093 0.01 0.187 0.015 0.28 0.017l-0.1-0.008c0.06 0.003 0.117 0.009 0.177 0.009l-0.077-0.001L8.5 24l-0.004-0.005a3.68 3.68 0 0 0 2.61-1.077l4.469-4.465a3.683 3.683 0 0 0 1.006-1.888l0.012-0.063a3.682 3.682 0 0 0 0.057-0.541l0.003-0.061c0-0.017 0.003-0.05 0.004-0.06h-0.002a3.683 3.683 0 0 0-1.077-2.607l-4.466-4.468a3.694 3.694 0 0 0-1.564-0.927l-0.07-0.02a3.43 3.43 0 0 0-0.946-0.133L8.5 7.682z m3.165 3.357c0.023 1.748-1.33 3.078-1.33 4.806 0.164 2.227 1.733 3.207 3.266 3.146-0.035 0.003-0.068 0.007-0.104 0.009-1.847 0.135-3.209-1.326-5.002-1.326-2.23 0.164-3.21 1.736-3.147 3.27l-0.008-0.104c-0.133-1.847 1.328-3.21 1.328-5.002-0.173-2.32-1.867-3.284-3.46-3.132 0.1-0.011 0.203-0.021 0.31-0.027 1.847-0.133 3.209 1.328 5.002 1.328 2.082-0.155 3.074-1.536 3.145-2.968zM0.844 0c0.238 4.792 3.256 7.056 6.252 7.376 0.165-1.692-4.319-5.6-4.319-5.6-0.008-0.011 0.009-0.025 0.019-0.014 0 0 4.648 4.01 5.423 5.645 2.762-0.15 5.196-1.947 5-4.912 0 0-4.12-0.613-5 4.618C7.98 2.753 5.493 0 0.844 0zM8.5 7.682v0.002a3.68 3.68 0 0 0-2.591 1.077L1.44 13.227a3.683 3.683 0 0 0-0.86 1.356 3.31 3.31 0 0 0-0.237 1.255A3.681 3.681 0 0 0 1.42 18.45l4.464 4.466a3.69 3.69 0 0 0 2.251 1.06l0.002 0.001c0.093 0.01 0.187 0.015 0.28 0.017l-0.1-0.008c0.06 0.003 0.117 0.009 0.177 0.009l-0.077-0.001L8.5 24l-0.004-0.005a3.68 3.68 0 0 0 2.61-1.077l4.469-4.465a3.683 3.683 0 0 0 1.006-1.888l0.012-0.063a3.682 3.682 0 0 0 0.057-0.541l0.003-0.061c0-0.017 0.003-0.05 0.004-0.06h-0.002a3.683 3.683 0 0 0-1.077-2.607l-4.466-4.468a3.694 3.694 0 0 0-1.564-0.927l-0.07-0.02a3.43 3.43 0 0 0-0.946-0.133L8.5 7.682z m3.165 3.357c0.023 1.748-1.33 3.078-1.33 4.806 0.164 2.227 1.733 3.207 3.266 3.146-0.035 0.003-0.068 0.007-0.104 0.009-1.847 0.135-3.209-1.326-5.002-1.326-2.23 0.164-3.21 1.736-3.147 3.27l-0.008-0.104c-0.133-1.847 1.328-3.21 1.328-5.002-0.173-2.32-1.867-3.284-3.46-3.132 0.1-0.011 0.203-0.021 0.31-0.027 1.847-0.133 3.209 1.328 5.002 1.328 2.082-0.155 3.074-1.536 3.145-2.968z"/></svg>