<svg fill="#13BEF9" role="img" viewBox="0 0 18 24" xmlns="http://www.w3.org/2000/svg"><title>Portainer</title><path d="M9.504 0v1.023l-0.01-0.015-6.106 3.526H0.417v0.751h5.359v3.638h1.942V5.284h1.786v10.416c0.027 0 0.54-0.01 0.751 0.091V5.285h0.531v10.608c0.293 0.147 0.55 0.312 0.751 0.54V5.286h6.046v-0.75h-1.267l-6.061-3.5V0z m0 1.87v2.664H4.889z m0.751 0.031l4.56 2.633h-4.56zM6.142 5.285h1.21v1.686h-1.21z m-4.736 2.73v1.951h1.942v-1.95z m2.19 0v1.951h1.941v-1.95z m-2.19 2.171v1.951h1.942v-1.95z m2.19 0v1.951h1.941v-1.95z m2.18 0v1.951h1.942v-1.95zM1.36 12.43a3.73 3.73 0 0 0-0.494 1.851c0 1.227 0.604 2.308 1.52 2.986 0.239-0.064 0.477-0.1 0.724-0.11 0.1 0 0.165 0.01 0.266 0.019 0.284-1.191 1.383-1.988 2.665-1.988 0.724 0 1.438 0.201 1.924 0.668 0.229-0.476 0.302-1.007 0.302-1.575 0-0.65-0.165-1.292-0.494-1.85z m4.828 3.16c-1.21 0-2.226 0.844-2.492 1.97a0.922 0.922 0 0 0-0.275-0.009 2.559 2.559 0 0 0-2.564 2.556 2.565 2.565 0 0 0 3.096 2.5A2.579 2.579 0 0 0 6.233 24c0.862 0 1.622-0.43 2.09-1.081a2.557 2.557 0 0 0 4.186-1.97c0-0.567-0.193-1.099-0.504-1.52a2.557 2.557 0 0 0-3.866-2.94 2.574 2.574 0 0 0-1.951-0.898z"/></svg>