<svg fill="#10539F" role="img" viewBox="0 0 36 24" xmlns="http://www.w3.org/2000/svg"><title>Pterodactyl</title><path d="M22.72 0.004a12.257 12.257 0 0 0-0.78 0.005c-0.84 0-2.294 0.15-3.211 0.342-2.675 0.535-6.341 2.406-8.021 4.164-1.986 2.064-1.986 2.56 0 1.337 1.566-1.033 6.801-3.248 7.565-3.248 0.229 0 0.419 0.155 0.418 0.385 0 0.19 0.764-0.193 1.682-0.881 0.916-0.649 1.988-1.413 2.37-1.68 0.487-0.287 0.543-0.401-0.023-0.424z m1.84 3.571c-0.693 0.015-1.304 0.06-1.667 0.138-2.444 0.496-5.042 2.024-7.715 4.546-1.415 1.337-2.599 2.291-2.599 2.062 0-0.229 0.152-0.535 0.382-0.649 0.611-0.382 3.935-5.192 3.705-5.385-0.305-0.344-5.691 2.29-8.175 3.972-2.902 1.986-6.111 5.463-7.22 7.908-0.496 1.031-0.839 1.949-0.762 2.025 0.077 0.038 1.298-0.766 2.712-1.834 1.413-1.071 2.673-1.833 2.789-1.719 0.114 0.115-0.613 1.068-1.644 2.101-1.031 1.069-1.759 1.911-1.643 1.91 0.114 0 1.68-0.613 3.437-1.375l3.171-1.336 0.576 0.877c1.871 2.904 4.849 4.203 9.549 4.088 2.522-0.038 3.057 0.041 4.355 0.956 0.802 0.535 1.682 0.992 1.948 0.992 0.268 0 0.573 0.267 0.727 0.573 0.115 0.306 0.61 0.575 1.069 0.575 0.764-0.038 0.802-0.077 0.23-0.422-0.382-0.19-0.69-0.575-0.69-0.802 0-0.23 0.306-0.648 0.69-0.916 0.611-0.458 0.611-0.496 0-0.535-0.344 0-0.766 0.153-0.881 0.382-0.42 0.687-1.604 0.381-2.253-0.535-0.573-0.917-0.573-0.955 0.841-1.415l1.412-0.458-2.672-1.298c-1.451-0.688-2.981-1.262-3.363-1.261-0.613 0-0.685-0.19-0.457-1.26 0.879-4.126 4.849-6.992 12.339-8.902C34.237 6.195 35.502 5.776 35.502 5.623c0-0.42-6.076-1.794-8.789-1.985a21.583 21.583 0 0 0-2.153-0.063Zm-18.018 7.818c0.229 0 0.232 0.228-0.073 0.572-0.268 0.344-0.575 0.497-0.65 0.423-0.267-0.268 0.265-0.996 0.723-0.997z m19.063 8.784a0.78 0.78 0 0 0-0.609 0.385c-0.115 0.19-0.079 0.381 0.151 0.381 0.191 0 0.499-0.19 0.612-0.381 0.115-0.229 0.076-0.385-0.153-0.385z m-4.123 1.148c-0.842 0-0.916 0.076-0.496 0.573 0.267 0.306 0.916 0.572 1.411 0.572 0.842 0 0.916-0.076 0.496-0.572-0.267-0.306-0.916-0.573-1.411-0.573z"/></svg>