<svg fill="#FFCB3D" role="img" viewBox="0 0 22 24" xmlns="http://www.w3.org/2000/svg"><title>radarr</title><path d="M4.275 0C2.19 0.039 0.191 1.547 0.191 4.705l0.184 14.518c0 1.47 1.103 2.205 2.573 2.021L2.765 3.786c0-1.654 0.919-1.838 2.022-1.103l14.7 8.27c1.103 0.734 1.655 1.47 1.838 2.756 0.92-1.654 0.552-4.043-1.286-5.33L6.992 0.846A4.559 4.559 0 0 0 4.275 0.001z m1.982 6.91l-0.184 10.107 9.004-5.146Zm13.598 6.064l-15.068 8.82c-0.92 0.552-2.022 0.736-3.124 0.368 0.918 1.47 3.307 2.389 5.145 1.47l12.68-7.35c1.102-0.736 1.286-2.022 0.367-3.308z"/></svg>