<svg fill="#3050FF" role="img" viewBox="0 0 25 24" xmlns="http://www.w3.org/2000/svg"><title>SearXNG</title><path d="M14.239 17.331l6.964 6.669L24.659 20.392l-6.914-6.623a9.231 9.231 0 0 0 1.158-4.489c0-5.122-4.159-9.28-9.282-9.28S0.341 4.158 0.341 9.28c0 5.122 4.158 9.28 9.28 9.281a9.231 9.231 0 0 0 4.618-1.23ZM9.621 2.651a6.633 6.633 0 0 1 6.63 6.629 6.632 6.632 0 0 1-6.63 6.629 6.632 6.632 0 0 1-6.628-6.629 6.632 6.632 0 0 1 6.628-6.629ZM7.697 5.63a4.119 4.119 0 0 1 4.807 0.757 4.118 4.118 0 0 1 0.716 4.812l1.173 0.619a5.447 5.447 0 0 0-0.948-6.366 5.448 5.448 0 0 0-6.357-1l0.609 1.178Z"/></svg>