<svg fill="#2596BE" role="img" viewBox="0 0 24 24" xmlns="http://www.w3.org/2000/svg"><title>sonarr</title><path d="M21.213 4.282c1.851 2.204 2.777 4.776 2.777 7.718 0 2.848-0.867 5.344-2.602 7.489a934.355 934.355 0 0 1-2.101-2.095c-1.477-1.477-1.792-3.293-1.792-5.278 0-2.224 0.127-3.486 1.577-4.935l2.478-2.478a13.209 13.209 0 0 0-0.337-0.421Zm-17.7 16.193C1.709 18.678 0.601 16.59 0.189 14.213A11.84 11.84 0 0 1 0.012 12c0-0.28 0.006-0.548 0.017-0.802 0-0.026 0.007-0.052 0.022-0.078 0.153-2.601 1.076-4.889 2.767-6.865-0.108 0.127-0.214 0.256-0.316 0.387 0 0 1.351 1.346 2.329 2.323 1.408 1.409 1.726 3.215 1.726 5.151 0 1.985-0.249 3.762-1.781 5.295-1.035 1.035-2.119 2.124-2.119 2.124 0.112 0.136 0.229 0.271 0.349 0.404 0.029-0.027 1.297-1.348 2.123-2.175 1.638-1.637 1.928-3.528 1.928-5.648 0-2.072-0.365-3.997-1.873-5.504a620.045 620.045 0 0 0-2.366-2.357c0.168-0.196 0.342-0.388 0.523-0.576l3.117 3.106-0.194 0.195 1.903 1.898 0.547-0.549L6.811 6.432l-0.196 0.196L3.496 3.52c0.01-0.009 0.436-0.416 0.643-0.597 0.009 0.011 2.28 2.283 2.28 2.283 1.538 1.537 3.5 1.955 5.621 1.955 2.18 0 4.134-0.442 5.731-2.038 0.907-0.908 2.153-2.149 2.162-2.16 0.17 0.151 0.491 0.461 0.56 0.528l0.013 0.013-3.111 3.028-0.001 0.002-0.197-0.194-1.876 1.903 0.552 0.543 1.875-1.903-0.197-0.194 3.109-3.026c0.193 0.203 0.377 0.41 0.553 0.619-0.03 0.025-2.495 2.546-2.495 2.546-1.556 1.556-1.723 2.9-1.723 5.288 0 2.121 0.361 4.054 1.939 5.632a576.91 576.91 0 0 0 2.133 2.124c-0.183 0.208-0.599 0.645-0.613 0.66l-3.066-3.174 0.195-0.196-1.995-1.986-0.546 0.549 1.995 1.986 0.195-0.196 3.065 3.172c-0.021 0.019-0.385 0.362-0.552 0.506-0.01-0.013-1.974-1.978-1.974-1.978-1.842-1.842-3.299-2.039-5.731-2.039-2.338 0-3.92 0.239-5.632 1.95-0.944 0.944-2.078 2.085-2.089 2.099-0.275-0.23-0.649-0.594-0.649-0.594l3.019-3.024 0.199 0.192 1.854-1.925-0.558-0.538-1.854 1.926 0.199 0.191-3.016 3.022ZM12.001 8.672A3.33 3.33 0 0 0 8.673 12 3.33 3.33 0 0 0 12.001 15.328 3.33 3.33 0 0 0 15.329 12 3.33 3.33 0 0 0 12.001 8.672ZM4.521 2.6C6.666 0.867 9.163 0 12.012 0c2.88 0 5.394 0.88 7.541 2.639 0 0-1.215 1.209-2.136 2.13-1.496 1.496-3.334 1.892-5.377 1.892-1.985 0-3.829-0.37-5.267-1.809L4.521 2.6Zm14.837 18.909a9.507 9.507 0 0 1-0.342 0.256C16.995 23.255 14.66 24 12.012 24c-2.652 0-4.983-0.745-6.993-2.235-0.104-0.074-0.208-0.15-0.31-0.227 0 0 1.096-1.101 2.053-2.058 1.602-1.602 3.09-1.804 5.278-1.804 2.28 0 3.651 0.166 5.377 1.892l1.941 1.941Z"/></svg>