<svg fill="#0A84FF" role="img" viewBox="0 0 26 24" xmlns="http://www.w3.org/2000/svg"><title>Thunderbird</title><path d="M10.857 4.107h-0.006c-2.005 0.823-2.221 2.664-1.897 3.655v0.021C10.113 6.965 11.598 6.526 13 6.526c3.405 0 6.165 2.252 6.165 5.03 0 2.778-2.761 5.03-6.165 5.03l-0.087-0.002c-0.162-0.006-0.37-0.014-0.454 0.123-0.1 0.163 0.121 0.415 0.249 0.56 1.331 1.505 3.262 1.694 3.768 1.744l0.08 0.009c-4.472 0.432-9.718-2.423-9.721-7.391 0-1.17 0.432-2.165 1.123-2.956l-0.005-0.002h-0.003C8.101 6.129 7.126 3.09 5.301 2.492c-0.13-0.042-0.257 0.056-0.274 0.191-0.24 2.01-0.759 2.705-1.32 3.458-0.841 1.128-1.452 2.432-1.426 3.862a11.479 11.479 0 0 1-0.736-1.995c-0.025-0.094-0.178-0.381-0.348-0.284-0.136 0.075-0.237 0.286-0.309 0.507A12.677 12.677 0 0 0 0.466 11.466c0 6.827 5.719 12.534 12.534 12.534 6.922 0 12.534-5.611 12.534-12.534 0-2.638-0.816-5.087-2.209-7.108l0.175-0.002c0.541 0 1.07 0.047 1.577 0.134-0.767-0.852-1.801-1.541-3.005-1.988a8.92 8.92 0 0 1 2.605-0.517c-1.489-1.218-3.664-1.985-6.087-1.985-3.504 0-6.944 1.347-7.733 4.105z m0.712 9.574c-0.909-0.945-3.628-4.084-3.628-4.084l0.211 0.011 4.257 3.177c0.319 0.233 0.773 0.23 1.089-0.004l4.174-3.169 0.222-0.019s-2.63 3.066-3.638 4.074c-1.007 1.011-1.779 0.96-2.687 0.014z m2.898-10.532s0.057 0.653-0.602 0.861c-0.754 0.237-1.088-0.397-1.089-0.397s0.094-0.436 0.707-0.637c0.654-0.215 0.984 0.173 0.984 0.173z"/></svg>