<svg fill="#D70008" role="img" viewBox="0 0 25 24" xmlns="http://www.w3.org/2000/svg"><title>Transmission</title><path d="M2.164 9.452V22.286c0 0.948 0.887 1.714 1.721 1.714h17.21c0.881 0 1.721-0.612 1.721-1.714V9.459c-2.339 0.376-4.632 0.625-6.884 0.773v5.163h3.442l-6.884 6.884-6.884-6.884h3.442v-5.102c-2.346-0.121-4.639-0.39-6.864-0.834h-0.02v-0.007zM15.932 0v8.444c2.252-0.148 4.545-0.168 6.884-0.545C23.757 7.751 24.537 7.086 24.537 6.071v-3.812c0-1.015-0.787-1.667-1.721-1.835-2.346-0.43-4.632-0.296-6.884-0.424zM9.048 0.014C6.722 0.155 4.436 0.04 2.184 0.424 1.243 0.585 0.463 1.244 0.463 2.259v3.812c0 1.015 0.787 1.647 1.721 1.828 2.225 0.444 4.518 0.477 6.864 0.605V0.014z"/></svg>