<svg fill="#000000" role="img" viewBox="0 0 24 24" xmlns="http://www.w3.org/2000/svg"><title>Vaultwarden</title><path d="M11.54 0.448c-0.143 0.238-0.333 0.524-0.438 0.628-0.172 0.181-0.181 0.172-0.733-0.371-0.667-0.667-0.771-0.648-1.086 0.209-0.133 0.352-0.295 0.6-0.429 0.677-0.191 0.095-0.286 0.067-0.762-0.276-0.8-0.562-0.943-0.476-1.095 0.619-0.038 0.276-0.114 0.476-0.209 0.514-0.076 0.029-0.4-0.067-0.705-0.219-0.781-0.372-0.895-0.286-0.905 0.619 0 0.371-0.048 0.724-0.095 0.771-0.067 0.067-0.314 0.048-0.781-0.066-0.914-0.219-0.972-0.162-0.753 0.752 0.114 0.467 0.133 0.714 0.067 0.781-0.048 0.048-0.4 0.095-0.772 0.095-0.914 0.009-0.991 0.124-0.609 0.905 0.371 0.781 0.276 1.01-0.448 1.105-1.067 0.152-1.133 0.286-0.543 1.076 0.476 0.629 0.448 0.724-0.343 1.01-0.848 0.324-0.867 0.429-0.2 1.095 0.543 0.552 0.552 0.562 0.372 0.734-0.105 0.105-0.391 0.295-0.629 0.438-0.591 0.343-0.591 0.571 0 0.914 0.238 0.143 0.524 0.333 0.629 0.438 0.181 0.172 0.172 0.181-0.372 0.734-0.667 0.667-0.648 0.771 0.21 1.086 0.352 0.133 0.6 0.295 0.676 0.428 0.095 0.191 0.067 0.286-0.276 0.762-0.562 0.8-0.476 0.943 0.619 1.096 0.276 0.038 0.476 0.114 0.514 0.209 0.029 0.076-0.067 0.4-0.219 0.705-0.372 0.781-0.286 0.895 0.619 0.905 0.371 0 0.724 0.048 0.772 0.095 0.067 0.067 0.048 0.314-0.067 0.781-0.219 0.914-0.162 0.972 0.753 0.753 0.467-0.114 0.714-0.133 0.781-0.067 0.048 0.048 0.095 0.4 0.095 0.771 0.009 0.914 0.124 0.991 0.905 0.61 0.781-0.371 1.01-0.276 1.105 0.448 0.152 1.067 0.286 1.133 1.076 0.543 0.629-0.476 0.724-0.448 1.01 0.343 0.324 0.848 0.419 0.867 1.104 0.19 0.667-0.648 0.61-0.657 1.162 0.276 0.343 0.581 0.572 0.581 0.915 0 0.552-0.933 0.495-0.924 1.162-0.276 0.686 0.676 0.781 0.657 1.095-0.2 0.133-0.352 0.295-0.6 0.429-0.676 0.191-0.095 0.286-0.067 0.762 0.276 0.8 0.562 0.943 0.476 1.095-0.619 0.038-0.276 0.114-0.476 0.21-0.514 0.076-0.029 0.4 0.067 0.704 0.219 0.781 0.371 0.895 0.286 0.905-0.619 0-0.371 0.047-0.724 0.096-0.772 0.067-0.067 0.314-0.048 0.781 0.067 0.914 0.219 0.972 0.162 0.752-0.753-0.114-0.467-0.133-0.715-0.067-0.781 0.048-0.048 0.4-0.095 0.772-0.095 0.914-0.009 0.991-0.124 0.61-0.905-0.371-0.781-0.276-1.01 0.447-1.105 1.067-0.152 1.133-0.286 0.543-1.076-0.476-0.629-0.448-0.724 0.343-1.01 0.848-0.324 0.867-0.419 0.19-1.105-0.648-0.667-0.657-0.61 0.277-1.162 0.295-0.181 0.438-0.324 0.438-0.457 0-0.133-0.143-0.276-0.438-0.457-0.933-0.552-0.924-0.495-0.277-1.162 0.676-0.686 0.657-0.781-0.2-1.095-0.352-0.133-0.6-0.295-0.676-0.429-0.095-0.191-0.067-0.286 0.276-0.762 0.562-0.8 0.476-0.943-0.619-1.095-0.276-0.038-0.476-0.114-0.514-0.21-0.029-0.076 0.067-0.4 0.219-0.705 0.371-0.781 0.286-0.895-0.619-0.905-0.371 0-0.724-0.047-0.772-0.095-0.067-0.067-0.048-0.314 0.067-0.781 0.219-0.914 0.162-0.972-0.752-0.752-0.467 0.114-0.714 0.133-0.781 0.066-0.048-0.048-0.095-0.4-0.096-0.771-0.009-0.914-0.124-0.991-0.905-0.61-0.781 0.371-1.01 0.276-1.104-0.447-0.152-1.067-0.286-1.133-1.077-0.543-0.629 0.476-0.724 0.448-1.009-0.343-0.324-0.848-0.429-0.867-1.096-0.2-0.552 0.543-0.562 0.552-0.733 0.371-0.105-0.105-0.295-0.391-0.438-0.628C12.274 0.143 12.131 0 11.998 0c-0.133 0-0.276 0.143-0.458 0.448z m0.934 1.933c0.105 0.105 0.191 0.314 0.19 0.476 0 0.162-0.086 0.371-0.19 0.477-0.41 0.409-1.143 0.105-1.143-0.477 0-0.362 0.305-0.667 0.667-0.666 0.162 0 0.371 0.086 0.476 0.19zM11.007 4c0.924 0.895 1.057 0.895 1.981 0l0.686-0.666 0.667 0.19c0.762 0.209 1.943 0.714 1.943 0.838 0 0.038-0.895 2.629-1.991 5.744-1.095 3.115-2.048 5.839-2.105 6.058-0.067 0.229-0.152 0.41-0.19 0.409-0.038 0-0.114-0.162-0.162-0.352-0.057-0.2-1-2.943-2.105-6.106-1.114-3.162-2.019-5.772-2.02-5.791 0-0.114 2.115-0.933 2.563-0.981 0.029-0.009 0.352 0.286 0.733 0.657z m-3.343 9.601c1.353 3.791 2.429 6.905 2.4 6.934-0.067 0.076-1.076-0.219-1.505-0.447-0.343-0.172-0.352-0.191-0.476-1-0.076-0.524-0.191-0.905-0.305-1.058-0.19-0.238-0.219-0.238-0.867-0.171-1.429 0.162-1.371 0.181-1.933-0.571-0.61-0.81-1.181-1.943-1.457-2.906-0.162-0.533-0.219-1.067-0.258-2.095l-0.047-1.381 0.857-0.457c1.153-0.6 1.181-0.705 0.59-1.877-0.428-0.848-0.428-0.8 0.124-1.6 0.152-0.229 0.314-0.381 0.353-0.333 0.038 0.038 1.172 3.172 2.524 6.962Zm11.82-6.21l0.238 0.4-0.39 0.772c-0.591 1.181-0.562 1.286 0.581 1.886l0.847 0.447v1.077c0 1.248-0.172 2.219-0.581 3.257-0.314 0.79-0.943 1.838-1.448 2.429l-0.323 0.381-0.753-0.114c-0.41-0.067-0.867-0.114-1.009-0.115-0.4 0-0.6 0.352-0.734 1.286l-0.124 0.829-0.504 0.219c-0.581 0.257-1.286 0.467-1.353 0.39-0.038-0.038 4.01-11.525 4.848-13.772l0.095-0.238 0.191 0.238c0.105 0.124 0.295 0.41 0.419 0.628zM3.759 8.715c0.448 0.438 0.181 1.095-0.448 1.095-0.4 0-0.648-0.238-0.648-0.628 0-0.629 0.657-0.914 1.096-0.467z m17.221-0.133c0.276 0.152 0.352 0.267 0.352 0.6 0 0.381-0.248 0.629-0.638 0.628-0.638 0-0.914-0.648-0.458-1.095 0.257-0.267 0.429-0.295 0.743-0.133zM7.235 19.154c0.343 0.819-0.829 1.324-1.21 0.515-0.143-0.295-0.143-0.343 0.01-0.572 0.324-0.495 0.991-0.467 1.2 0.057z m10.563-0.257c0.238 0.191 0.305 0.524 0.152 0.819-0.391 0.762-1.524 0.219-1.19-0.562 0.171-0.429 0.667-0.552 1.038-0.257z"/></svg>