<svg fill="#196AFF" role="img" viewBox="0 0 25 24" xmlns="http://www.w3.org/2000/svg"><title>Vikunja</title><path d="M12.5 0a12.177 12.177 0 0 0-8.668 3.592A12.167 12.167 0 0 0 0.241 12.26a12.179 12.179 0 0 0 3.591 8.669 12.177 12.177 0 0 0 4.728 2.946c0.112-1.167 0.393-2.377 0.365-3.571-0.035-1.691 0.52-3.633-0.142-5.201-0.22-0.518-0.506-1.033-0.69-1.538a5.782 5.782 0 0 1-0.329-1.229c-0.029-0.234-0.052-1.199-0.031-1.443 0.092-1.039 0.213-2.219 0.213-2.219S7.67 7.964 8.07 7.097c-0.066-0.056-0.091-0.196-0.108-0.258-0.068-0.232-0.092-0.477-0.106-0.717-0.091-1.472-0.113-4.298 1.933-4.937 0.955-0.299 0.705 0.457 0.682 1.096-0.022 0.928-0.078 1.865-0.078 2.812 0 0.067 0.016 0.136 0.021 0.201 0.827-0.231 1.668-0.259 2.251-0.259 0.694 0 1.766 0.04 2.742 0.417 0.201-0.74 0.291-3.06 0.315-3.672 0.02-0.485 0.161-0.674 0.355-0.684 0.46-0.024 1.221 0.96 1.396 1.421 0.642 1.687 0.382 2.969-0.297 4.369 0.555 0.961 0.233 1.79 0.232 1.789s0.221 2.292 0.188 3.014c-0.093 2.055-0.847 2.462-1.302 3.792-0.527 1.54-0.135 3.245 0 4.853 0.047 0.53 0.347 1.914 0.607 3.375a12.177 12.177 0 0 0 4.267-2.78A12.177 12.177 0 0 0 24.759 12.26c0-2.799-1.008-5.583-2.789-7.777v-0.001a12.259 12.259 0 0 0-0.639-0.728C19.026 1.334 15.889 0 12.5 0m4.093 2.628c-0.027 0.001-0.047 0.018-0.057 0.057-0.026 0.108-0.041 0.908-0.106 1.291-0.082 0.474-0.23 0.942-0.23 1.425-0.003 1.079 0.323 1.124 0.451 1.369v0.001c0.131 0.232 0.472-1.025 0.58-1.573 0.102-0.515 0.23-1.198 0.051-1.709-0.081-0.236-0.523-0.863-0.689-0.861m-7.091 0.107c-0.014 0-0.03 0.007-0.048 0.023C8.176 3.924 8.547 5.888 8.669 6.988v-0.001c0.033 0.3 0.48-0.065 0.714-0.76 0.117-0.35 0.216-0.314 0.338-0.888 0.046-0.211-0.051-0.452-0.06-0.913-0.005-0.244 0.028-0.94-0.005-1.183-0.02-0.154-0.052-0.509-0.153-0.508m1.031 4.996c-0.035-0.001-0.071 0.012-0.101 0.045-0.172 0.189-0.288 0.622 0.084 0.715 0.198 0.047 0.483 0.045 0.725-0.01-0.102 0.326-0.123 0.623 0.297 0.831 0.282 0.142 0.67 0.141 0.835-0.076 0.347 0.185 0.89 0.366 0.965-0.1 0.027-0.166-0.26-0.236-0.287-0.07-0.042 0.258-0.525-0.042-0.645-0.124-0.106-0.07-0.243-0.027-0.256 0.093-0.018 0.162-0.236 0.115-0.335 0.095-0.189-0.038-0.35-0.156-0.354-0.332-0.005-0.174 0.105-0.354 0.161-0.516 0.037-0.102-0.111-0.217-0.22-0.147-0.194 0.124-1.133 0.236-0.758-0.174 0.089-0.098-0.006-0.227-0.111-0.23m0.056 2.36c-0.355-0.008-0.505 0.442-0.645 0.805-0.043 0.1-0.099 0.262 0.011 0.232 0.23-0.061 0.467-0.656 0.639-0.618 0.269 0.063 0.384 0.531 0.528 0.588 0.264 0.102-0.151-0.932-0.459-0.999a0.449 0.449 0 0 0-0.074-0.008m4.394 0c-0.356-0.008-0.505 0.442-0.645 0.805h-0.001c-0.043 0.1-0.098 0.262 0.012 0.232 0.23-0.061 0.466-0.656 0.639-0.618 0.269 0.063 0.383 0.531 0.527 0.588 0.266 0.102-0.149-0.932-0.458-0.999a0.46 0.46 0 0 0-0.074-0.008m-2.028 1.474c-0.612-0.015-1.052 0.171-1.37 0.5-0.479 0.498-0.605 0.792-0.607 1.736 0 0.509 0.549 1.636 0.712 1.896 0.272 0.46 0.774 0.624 1.265 0.59 0.493 0.034 0.995-0.131 1.265-0.59 0.163-0.26 0.704-1.366 0.703-1.965h0.001c-0.001-0.942-0.119-1.323-0.644-1.784-0.329-0.289-0.714-0.398-1.325-0.383m0.813 1.378c0.091 0.036-0.013 0.106-0.049 0.15a1.737 1.737 0 0 0-0.1 0.138c-0.05 0.073-0.374 0.507-0.414 0.545a1.532 1.532 0 0 1-0.09 0.082c0.021 0.078-0.011 0.173-0.02 0.249a4.086 4.086 0 0 0-0.02 0.571c0.006 0.152 0.064 0.336 0.049 0.489 0.268-0.019 0.539-0.056 0.801-0.095 0.232-0.034 0.517-0.077 0.673-0.247 0.013 0.575-1.182 0.755-1.645 0.766-0.538 0.013-1.143-0.22-1.52-0.553l-0.001 0h0.001l0 0c0.445 0.039 0.889 0.132 1.337 0.14-0.014-0.081-0.009-0.172-0.014-0.224a4.515 4.515 0 0 1 0.034-1.115q0-0.001 0.001-0.002c-0.086-0.107-0.167-0.216-0.254-0.321-0.088-0.105-0.185-0.207-0.302-0.286-0.065-0.041-0.204-0.088-0.051-0.132 0.258-0.073 0.57 0.052 0.775 0.189 0.226-0.163 0.507-0.332 0.809-0.344m1.463 3.802c-0.096 0.003-0.191 0.069-0.165 0.175 0.031 0.128 0.036 0.562-0.205 0.324-0.096-0.096-0.288-0.038-0.296 0.09-0.018 0.299-0.318 0.306-0.576 0.216-0.204-0.072-0.314 0.212-0.109 0.282 0.379 0.133 0.792 0.059 0.953-0.227 0.129 0.06 0.275 0.077 0.392-0.034 0.204-0.192 0.235-0.462 0.175-0.711-0.02-0.083-0.095-0.118-0.169-0.115m-5.086 1.45c-0.055-0.001-0.112 0.019-0.151 0.069-0.37 0.461 0.626 1.32 1.195 1.088 0.026 0.115 0.051 0.23 0.102 0.339 0.094 0.216 0.305 0.355 0.524 0.473 0.295 0.158 0.871-0.121 0.957-0.387 0.063-0.185-0.271-0.252-0.332-0.067-0.028 0.083-0.238 0.146-0.316 0.17-0.19 0.063-0.359-0.088-0.465-0.214-0.148-0.175-0.144-0.455-0.207-0.659-0.037-0.124-0.249-0.14-0.313-0.026-0.212 0.381-1.036-0.337-0.844-0.577 0.087-0.108-0.029-0.207-0.15-0.209m5.65 4.89a0.135 0.135 0 0 0-0.124 0.079c-0.089 0.183-0.253 0.171-0.429 0.095-0.129-0.056-0.289 0.036-0.25 0.166 0.079 0.263-0.252 0.34-0.477 0.246-0.197-0.083-0.368 0.176-0.168 0.259 0.404 0.169 0.916 0.02 0.99-0.334 0.26 0.042 0.508-0.031 0.63-0.285 0.059-0.119-0.062-0.228-0.172-0.226"/></svg>