<svg fill="#3F6184" role="img" viewBox="0 0 23 24" xmlns="http://www.w3.org/2000/svg"><title>Wallabag</title><path d="M19.877 0.001c-0.043-0.005-0.091 0.014-0.139 0.052-0.103 0.084-0.998 0.292-1.529 0.706-0.857 0.669-1.385 1.94-1.625 2.644a5.606 5.606 0 0 0-0.047 0.141c-0.112 0.269-0.334 0.27-0.334 0.269a3.002 3.002 0 0 0-0.325-0.017c-0.097 0-0.195 0.004-0.291 0.013-0.002 0-0.004 0-0.006 0-0.284 0.042-0.44-0.304-0.473-0.387-0.332-0.953-1.225-2.834-3.232-3.339 0 0-0.365-0.279-0.255 0.193 0.106 0.451 0.324 0.906 0.276 1.57-0.022 0.306-0.212 1.877 1.232 2.695 0.137 0.078 0.26 0.144 0.37 0.199-0.727 0.581-1.388 1.39-1.954 2.309 0.287-0.176 1.836-0.998 4.333 0.034 2.568 1.06 4.161 0.139 4.358 0.013-0.621-1.021-1.358-1.909-2.174-2.506 0.054-0.015 0.109-0.03 0.168-0.047 1.083-0.313 1.358-1.231 1.416-2.016 0.066-0.89 0.11-0.904 0.303-1.705 0.139-0.577 0.058-0.807-0.073-0.821zM12.703 9.03c-0.226 0-0.413 0.063-0.556 0.188-0.146 0.128-0.219 0.276-0.219 0.44v2.841c0 0.357 0.035 0.696 0.104 1.005 0.071 0.316 0.193 0.592 0.366 0.823 0.174 0.234 0.41 0.419 0.702 0.549 0.289 0.129 0.649 0.194 1.073 0.194 0.442 0 0.811-0.083 1.099-0.245 0.241-0.136 0.445-0.313 0.606-0.53 0.156 0.217 0.355 0.395 0.593 0.53 0.284 0.162 0.659 0.244 1.116 0.245 0.424 0 0.784-0.067 1.07-0.196 0.288-0.131 0.522-0.314 0.696-0.547 0.173-0.232 0.296-0.508 0.365-0.823 0.069-0.309 0.102-0.648 0.102-1.005v-2.841c0-0.164-0.07-0.312-0.211-0.44-0.138-0.125-0.327-0.188-0.561-0.188-0.212 0-0.389 0.064-0.524 0.19-0.137 0.128-0.205 0.275-0.206 0.438v2.886c0 0.387-0.068 0.673-0.203 0.848-0.131 0.17-0.34 0.252-0.639 0.252-0.306 0-0.516-0.081-0.64-0.25-0.129-0.176-0.194-0.462-0.193-0.85V9.646c0-0.197-0.09-0.357-0.26-0.465-0.232-0.146-0.461-0.199-0.741-0.106a1.184 1.184 0 0 0-0.241 0.11 0.696 0.696 0 0 0-0.195 0.178c-0.058 0.078-0.088 0.161-0.088 0.25v2.931c0 0.388-0.065 0.674-0.194 0.85-0.124 0.169-0.332 0.25-0.637 0.25-0.306 0-0.518-0.083-0.646-0.252-0.132-0.176-0.199-0.461-0.199-0.848v-2.886c0-0.163-0.069-0.31-0.205-0.438-0.135-0.126-0.314-0.19-0.534-0.19z m-3.052 5.774a5.613 5.613 0 0 0 0.336 1.032c0.12 0.673 0.28 2.257-0.481 3.645-0.671 1.222-3.981 2.888-8.895 1.932 0 0-0.196-0.137-0.256-0.024-0.088 0.168 0.272 0.303 0.644 0.401 3.421 0.906 8.583 0.536 10.204-0.8 0.74-0.609 1.026-1.428 1.099-2.311 0 0 0.02-0.231 0.309-0.056 0.083 0.05 0.382 0.245 0.43 0.465 0.042 0.313 0.044 0.696-0.118 0.966-0.231 0.385-0.234 0.441 0.071 0.659 0.187 0.133 0.952 0.695 2.014 1.333 0.003 0.002 0.003 0.003 0.006 0.004 0.225 0.135 0.538 0.467 0.537 0.467 0.478 0.553 1.518 1.666 1.971 1.457 0.214-0.099-0.008-0.544-0.008-0.544s0.354 0.461 0.546 0.304c0.145-0.12-0.084-0.581-0.084-0.581s0.31 0.27 0.495 0.17c0.226-0.122-0.033-0.83-1.811-1.91-1.779-1.082-2.261-1.248-2.303-1.731 0 0-0.001-0.023 0-0.064 0.014-0.107 0.074-0.333 0.332-0.309a7.454 7.454 0 0 0 1.189 0.096 7.391 7.391 0 0 0 1.355-0.124s0.023-0.005 0.029-0.006c0.051-0.006 0.15-0.003 0.151 0.122-0.016 0.157-0.06 0.314-0.153 0.451-0.26 0.39-0.174 0.444 0.098 0.695 0.168 0.154 0.937 0.831 1.991 1.486 0.002 0.002 0.001 0.003 0.004 0.003 0.225 0.135 0.614 0.506 0.614 0.507 0.436 0.443 1.238 1.185 1.675 1.14 0.296-0.03 0.055-0.54 0.055-0.54s0.374 0.36 0.557 0.254c0.205-0.118-0.084-0.495-0.084-0.494s0.241 0.128 0.411 0.086c0.17-0.042 0.212-0.477-1.557-1.572-1.769-1.096-2.364-1.481-2.326-1.901 0 0 0-0.068 0.017-0.172 0.043-0.222 0.178-0.601 0.612-0.817a0.252 0.252 0 0 0 0.037-0.024c1.378-0.8 2.386-2.087 2.742-3.695-0.358 0.888-3.008 1.578-6.228 1.578-3.218 0-5.87-0.69-6.227-1.578z"/></svg>