<svg fill="#416271" role="img" viewBox="0 0 25 24" xmlns="http://www.w3.org/2000/svg"><title>Watchtower</title><path d="M12.5 0C5.818 0 0.4 5.372 0.4 12.001c0 6.626 5.418 11.999 12.1 11.999S24.6 18.628 24.6 12.001C24.6 5.374 19.182 0.001 12.5 0.001Zm0.14 7.401l5.422 2.683v0.223h-0.53v0.509l6.413-1.633a11.621 11.621 0 0 1-0.25 6.478l-6.163-1.23v0.657h2.448v1.1h0.396l-0.002 0.25-2.768 1.484 0.676 4.254-0.205 0.112a11.818 11.818 0 0 1-5.552 1.378A11.778 11.778 0 0 1 7.176 22.387h-0.01v-0.003c-0.066-0.033-0.132-0.065-0.197-0.099l0.691-4.346-2.788-1.486 0.001-0.266h0.416v-1.099h2.456v-0.655L1.369 15.706a11.56 11.56 0 0 1-0.607-3.707c0-0.995 0.126-1.963 0.363-2.886l6.619 1.69v-0.515h-0.583v-0.204Zm-4.896 3.402v3.63l0.332-0.068v-3.48z m0.332 0.082l2.691 0.686v-1.07H8.076Zm2.691 0.686v2.259l0.33-0.068v-2.107z m0.33 0.084l0.456 0.116 0.039-0.443h2.094l0.04 0.457 0.462-0.116v-1.168h-3.091z m3.091 0.014l-0.002 2.091 0.333 0.068v-2.244l2.68-0.684v-0.399H14.517v1.083z m3.011-0.769v3.463l0.333 0.067v-3.614z m0 3.463l-2.68-0.535v0.942h2.68z m-3.013-0.603l-0.283-0.055 0.097 1.065h0.186z m-3.089 0.002v1.008h0.18l0.097-1.063z m-3.021 0.603v0.405h2.689v-0.94z m-0.911 8.017c0.003 0.003 0.007 0.003 0.01 0.005l10.902-0.099-0.346-2.238H7.537Zm5.473-14.827l-5.335 2.615h10.615Zm-0.912 3.92l-0.301 3.295h2.428l-0.301-3.295z m-3.65 3.573v0.069h9.313l-0.004-0.069z m-2.568 0.322v0.817h2.236v-0.817z m2.568 0v0.817h3.035v-0.817z m3.256 0v0.817h2.627v-0.817z m2.848 0v0.817h3.207v-0.817z m3.426 0v0.817H19.76v-0.817Zm-12.318 1.059l2.596 1.382h9.501l2.595-1.382z"/></svg>